<svg width="25" height="25" viewBox="0 0 25 25" fill="none" xmlns="http://www.w3.org/2000/svg">
  <mask id="mask0_1149_573" style="mask-type:alpha" maskUnits="userSpaceOnUse" x="0" y="0" width="25" height="25">
    <rect x="0.966797" y="0.394043" width="24" height="24" fill="#D9D9D9" />
  </mask>
  <g mask="url(#mask0_1149_573)">
    <path
      d="M12.9668 23.394C11.1001 23.394 9.38346 22.969 7.8168 22.119C6.25013 21.269 4.9668 20.1357 3.9668 18.719V21.394H1.9668V15.394H7.9668V17.394H5.4918C6.2918 18.594 7.34596 19.5607 8.6543 20.294C9.96263 21.0274 11.4001 21.394 12.9668 21.394C14.2168 21.394 15.3876 21.1565 16.4793 20.6815C17.571 20.2065 18.521 19.5649 19.3293 18.7565C20.1376 17.9482 20.7793 16.9982 21.2543 15.9065C21.7293 14.8149 21.9668 13.644 21.9668 12.394H23.9668C23.9668 13.9107 23.6793 15.3357 23.1043 16.669C22.5293 18.0024 21.7418 19.169 20.7418 20.169C19.7418 21.169 18.5751 21.9565 17.2418 22.5315C15.9085 23.1065 14.4835 23.394 12.9668 23.394ZM12.0668 19.394V18.094C11.2835 17.9107 10.646 17.5732 10.1543 17.0815C9.66263 16.5899 9.30013 15.944 9.0668 15.144L10.7168 14.494C10.9168 15.1774 11.2293 15.6899 11.6543 16.0315C12.0793 16.3732 12.5668 16.544 13.1168 16.544C13.6668 16.544 14.1376 16.4149 14.5293 16.1565C14.921 15.8982 15.1168 15.494 15.1168 14.944C15.1168 14.4607 14.9126 14.069 14.5043 13.769C14.096 13.469 13.3668 13.1274 12.3168 12.744C11.3335 12.394 10.6126 11.9774 10.1543 11.494C9.69596 11.0107 9.4668 10.3774 9.4668 9.59404C9.4668 8.91071 9.7043 8.28988 10.1793 7.73154C10.6543 7.17321 11.3001 6.81071 12.1168 6.64404V5.39404H13.8668V6.64404C14.4668 6.69404 15.0126 6.93571 15.5043 7.36904C15.996 7.80238 16.3335 8.31071 16.5168 8.89404L14.9168 9.54404C14.7835 9.16071 14.5668 8.83988 14.2668 8.58154C13.9668 8.32321 13.5501 8.19404 13.0168 8.19404C12.4335 8.19404 11.9876 8.31904 11.6793 8.56904C11.371 8.81904 11.2168 9.16071 11.2168 9.59404C11.2168 10.0274 11.4085 10.369 11.7918 10.619C12.1751 10.869 12.8668 11.1607 13.8668 11.494C15.0668 11.9274 15.8668 12.4357 16.2668 13.019C16.6668 13.6024 16.8668 14.244 16.8668 14.944C16.8668 15.4274 16.7835 15.8524 16.6168 16.219C16.4501 16.5857 16.2293 16.8982 15.9543 17.1565C15.6793 17.4149 15.3585 17.6232 14.9918 17.7815C14.6251 17.9399 14.2335 18.0607 13.8168 18.144V19.394H12.0668ZM1.9668 12.394C1.9668 10.8774 2.2543 9.45238 2.8293 8.11904C3.4043 6.78571 4.1918 5.61904 5.1918 4.61904C6.1918 3.61904 7.35846 2.83154 8.6918 2.25654C10.0251 1.68154 11.4501 1.39404 12.9668 1.39404C14.8335 1.39404 16.5501 1.81904 18.1168 2.66904C19.6835 3.51904 20.9668 4.65238 21.9668 6.06904V3.39404H23.9668V9.39404H17.9668V7.39404H20.4418C19.6418 6.19404 18.5876 5.22738 17.2793 4.49404C15.971 3.76071 14.5335 3.39404 12.9668 3.39404C11.7168 3.39404 10.546 3.63154 9.4543 4.10654C8.36263 4.58154 7.41263 5.22321 6.6043 6.03154C5.79596 6.83988 5.1543 7.78988 4.6793 8.88154C4.2043 9.97321 3.9668 11.144 3.9668 12.394H1.9668Z"
      fill="white" />
  </g>
</svg>