<svg width="251" height="250" fill="none" xmlns="http://www.w3.org/2000/svg"><rect x=".063" width="250" height="250" rx="125" fill="#6700CE"/><path fill-rule="evenodd" clip-rule="evenodd" d="M89.294 98.433c.335.271.14.799-.292.799H46.871c-.431 0-.627-.528-.291-.799a33.794 33.794 0 0121.358-7.563 33.793 33.793 0 0121.358 7.563h-.002zM54.726 134.099a1.302 1.302 0 00-1.058-.565H35.903a.612.612 0 00-.591.778c4.095 14.165 17.15 24.521 32.62 24.521 15.471 0 28.526-10.356 32.621-24.521a.611.611 0 00-.592-.778H82.196c-.422 0-.813.219-1.058.565-2.914 4.163-7.744 6.882-13.209 6.882s-10.291-2.719-13.209-6.882h.006zM79.885 114c.245.271.592.434.956.434h18.584c.42 0 .72-.411.58-.807a33.994 33.994 0 00-5.724-10.239 1.22 1.22 0 00-.945-.446H42.55c-.368 0-.715.16-.945.446a33.929 33.929 0 00-5.724 10.239c-.14.396.16.807.58.807h18.584c.364 0 .71-.163.956-.434a16.072 16.072 0 0111.944-5.299c4.736 0 8.994 2.044 11.944 5.299h-.003zM83.919 129.835a.48.48 0 01-.455-.612 16.14 16.14 0 00.595-4.357c0-2.125-.411-4.153-1.157-6.01a.482.482 0 01.437-.665h17.514c.222 0 .414.158.455.376.381 2.044.582 4.148.582 6.302 0 1.55-.104 3.075-.303 4.57a.461.461 0 01-.457.399H83.919v-.003zM52.409 129.223a.48.48 0 01-.455.612h-17.21a.46.46 0 01-.458-.399 34.25 34.25 0 01.276-10.872.463.463 0 01.455-.376h17.514a.48.48 0 01.438.665 16.093 16.093 0 00-1.158 6.01c0 1.51.207 2.97.595 4.357l.003.003z" fill="#fff"/><path d="M110.442 109.859h12.647v16.394h-.936c.749-5.182 2.749-9.367 5.996-12.553 3.246-3.186 7.149-4.777 11.71-4.777 3.498 0 6.605.86 9.322 2.577 2.716 1.719 4.809 4.092 6.278 7.12 1.466 3.031 2.2 6.45 2.2 10.26v29.321h-12.646v-27.074c0-2.061-.438-3.903-1.312-5.526a9.335 9.335 0 00-3.748-3.795c-1.627-.904-3.437-1.359-5.433-1.359-2.186 0-4.153.455-5.902 1.359-1.749.906-3.107 2.171-4.075 3.795-.968 1.626-1.451 3.465-1.451 5.526v27.074h-12.647v-48.339l-.003-.003zM176.861 128.874h29.79l-2.903 4.028c-.125-2.498-.749-4.745-1.874-6.745-1.125-1.999-2.637-3.559-4.544-4.684-1.906-1.125-4.074-1.687-6.511-1.687-2.437 0-4.655.609-6.651 1.827-2 1.219-3.559 2.935-4.684 5.153-1.125 2.218-1.688 4.638-1.688 7.261s.578 5.121 1.735 7.307a12.805 12.805 0 004.92 5.153c2.121 1.25 4.526 1.874 7.213 1.874 2.688 0 4.981-.609 7.074-1.828a13.055 13.055 0 004.917-5.013l10.4 4.684c-2.248 3.935-5.34 7.074-9.275 9.414-3.935 2.344-8.432 3.512-13.489 3.512s-9.181-1.093-13.116-3.278c-3.934-2.186-7.041-5.2-9.321-9.042-2.279-3.841-3.419-8.102-3.419-12.786 0-4.684 1.108-8.852 3.326-12.693 2.215-3.842 5.261-6.87 9.135-9.088 3.87-2.215 8.181-3.326 12.929-3.326 5.308 0 10.023 1.344 14.145 4.028 4.121 2.687 7.167 6.293 9.134 10.819 1.967 4.53 2.513 9.447 1.638 14.754h-38.878v-9.65l-.003.006z" fill="#fff"/></svg>