<svg width="25" height="25" viewBox="0 0 25 25" fill="none" xmlns="http://www.w3.org/2000/svg">
  <mask id="mask0_1125_930" style="mask-type:alpha" maskUnits="userSpaceOnUse" x="0" y="0" width="25" height="25">
    <rect x="0.966797" y="0.295898" width="24" height="24" fill="#D9D9D9" />
  </mask>
  <g mask="url(#mask0_1125_930)">
    <path
      d="M4.9668 14.2959C4.9668 12.5459 5.38346 10.9876 6.2168 9.6209C7.05013 8.25423 7.9668 7.10423 8.9668 6.1709C9.9668 5.23757 10.8835 4.52507 11.7168 4.0334L12.9668 3.2959V6.5959C12.9668 7.21256 13.1751 7.70007 13.5918 8.0584C14.0085 8.41673 14.4751 8.5959 14.9918 8.5959C15.2751 8.5959 15.546 8.53757 15.8043 8.4209C16.0626 8.30423 16.3001 8.11257 16.5168 7.8459L16.9668 7.2959C18.1668 7.9959 19.1335 8.96673 19.8668 10.2084C20.6001 11.4501 20.9668 12.8126 20.9668 14.2959C20.9668 15.7626 20.6085 17.1001 19.8918 18.3084C19.1751 19.5167 18.2335 20.4709 17.0668 21.1709C17.3501 20.7709 17.571 20.3334 17.7293 19.8584C17.8876 19.3834 17.9668 18.8792 17.9668 18.3459C17.9668 17.6792 17.8418 17.0501 17.5918 16.4584C17.3418 15.8667 16.9835 15.3376 16.5168 14.8709L12.9668 11.3959L9.4418 14.8709C8.95846 15.3542 8.5918 15.8876 8.3418 16.4709C8.0918 17.0542 7.9668 17.6792 7.9668 18.3459C7.9668 18.8792 8.04596 19.3834 8.2043 19.8584C8.36263 20.3334 8.58346 20.7709 8.8668 21.1709C7.70013 20.4709 6.75846 19.5167 6.0418 18.3084C5.32513 17.1001 4.9668 15.7626 4.9668 14.2959ZM12.9668 14.1959L15.0918 16.2709C15.3751 16.5542 15.5918 16.8709 15.7418 17.2209C15.8918 17.5709 15.9668 17.9459 15.9668 18.3459C15.9668 19.1626 15.6751 19.8584 15.0918 20.4334C14.5085 21.0084 13.8001 21.2959 12.9668 21.2959C12.1335 21.2959 11.4251 21.0084 10.8418 20.4334C10.2585 19.8584 9.9668 19.1626 9.9668 18.3459C9.9668 17.9626 10.0418 17.5917 10.1918 17.2334C10.3418 16.8751 10.5585 16.5542 10.8418 16.2709L12.9668 14.1959Z"
      fill="white" />
  </g>
</svg>