<svg width="25" height="25" viewBox="0 0 25 25" fill="none" xmlns="http://www.w3.org/2000/svg">
  <mask id="mask0_1125_948" style="mask-type:alpha" maskUnits="userSpaceOnUse" x="0" y="0" width="25" height="25">
    <rect x="0.966797" y="0.295898" width="24" height="24" fill="#D9D9D9" />
  </mask>
  <g mask="url(#mask0_1125_948)">
  </g>
  <mask id="mask1_1125_948" style="mask-type:alpha" maskUnits="userSpaceOnUse" x="0" y="0" width="25" height="25">
    <rect x="0.966797" y="0.295898" width="24" height="24" fill="#D9D9D9" />
  </mask>
  <g mask="url(#mask1_1125_948)">
    <path
      d="M12.9668 2.10547C18.5947 2.10553 23.1572 6.66799 23.1572 12.2959C23.1572 17.9238 18.5947 22.4863 12.9668 22.4863C7.33885 22.4863 2.77637 17.9239 2.77637 12.2959C2.77637 6.66795 7.33885 2.10547 12.9668 2.10547ZM12.1855 5.08008V6.76367C11.5977 6.83047 11.023 7.10413 10.4619 7.58496C9.90067 8.06603 9.62012 8.74175 9.62012 9.61035C9.6202 10.3318 9.83321 10.9433 10.2607 11.4443C10.6883 11.9454 11.4769 12.3765 12.626 12.7373C13.695 13.0847 14.3769 13.395 14.6709 13.6689C14.9648 13.9429 15.1123 14.3136 15.1123 14.7812C15.1123 15.3022 14.9215 15.6864 14.541 15.9336C14.1602 16.1808 13.6953 16.3047 13.1475 16.3047C12.506 16.3047 11.988 16.1378 11.5938 15.8037C11.1997 15.4697 10.9026 14.982 10.7021 14.3408L9.21875 14.9414C9.45929 15.7699 9.83708 16.4119 10.3516 16.8662C10.866 17.3204 11.4774 17.6278 12.1855 17.7881V19.5117H13.7891V17.8281C14.6175 17.7078 15.3128 17.4007 15.874 16.9062C16.4351 16.4118 16.7158 15.6899 16.7158 14.7412C16.7158 13.9796 16.4783 13.3078 16.0039 12.7266C15.5295 12.1453 14.8311 11.7213 13.9092 11.4541C12.9203 11.1735 12.2251 10.9062 11.8242 10.6523C11.4236 10.3985 11.2238 10.0511 11.2236 9.61035C11.2236 9.22282 11.3772 8.89827 11.6846 8.6377C11.9919 8.37724 12.4395 8.24707 13.0273 8.24707C13.5349 8.24709 13.9356 8.35377 14.2295 8.56738C14.5234 8.78111 14.7508 9.10192 14.9111 9.5293L16.3945 8.88867C16.1941 8.34079 15.8767 7.87596 15.4424 7.49512C15.0081 7.11438 14.4571 6.87058 13.7891 6.76367V5.08008H12.1855Z"
      fill="white" />
  </g>
</svg>