<svg width="177" height="40" viewBox="0 0 177 40" fill="none" xmlns="http://www.w3.org/2000/svg">
  <path fill-rule="evenodd" clip-rule="evenodd"
    d="M19.3386 12.644C19.4554 12.7388 19.3871 12.9237 19.2367 12.9237H4.5069C4.35655 12.9237 4.2882 12.7388 4.40505 12.644C6.44459 10.9905 9.04259 10 11.8718 10C14.7009 10 17.299 10.9905 19.3386 12.644Z"
    fill="white" />
  <path fill-rule="evenodd" clip-rule="evenodd"
    d="M7.25272 25.1132C7.16776 24.9919 7.03106 24.9158 6.88314 24.9158H0.672365C0.530103 24.9158 0.426369 25.051 0.465887 25.1878C1.89785 30.1395 6.46183 33.7601 11.8706 33.7601C17.2794 33.7601 21.8433 30.1395 23.2753 25.1878C23.3149 25.051 23.2112 24.9158 23.0689 24.9158H16.8582C16.7103 24.9158 16.5735 24.9919 16.4886 25.1132C15.4692 26.5681 13.7809 27.5193 11.8707 27.5193C9.96046 27.5193 8.27217 26.5681 7.25272 25.1132Z"
    fill="white" />
  <path fill-rule="evenodd" clip-rule="evenodd"
    d="M16.0486 18.086C16.1345 18.1807 16.255 18.2378 16.3829 18.2378H22.8799C23.027 18.2378 23.1314 18.0944 23.0828 17.9554C22.6243 16.6417 21.9419 15.4331 21.0811 14.3757C21.0004 14.2764 20.8786 14.2202 20.7507 14.2202H2.99465C2.86676 14.2202 2.74506 14.2764 2.66423 14.3757C1.80356 15.4331 1.12099 16.6417 0.662499 17.9554C0.614 18.0944 0.718451 18.2378 0.865474 18.2378H7.36248C7.49028 18.2378 7.6109 18.1807 7.69676 18.086C8.72798 16.9481 10.217 16.2336 11.8727 16.2336C13.5284 16.2336 15.0174 16.9481 16.0486 18.086Z"
    fill="white" />
  <path fill-rule="evenodd" clip-rule="evenodd"
    d="M17.4591 23.6223C17.3486 23.6223 17.2702 23.5145 17.3 23.4079C17.4354 22.9234 17.5079 22.4125 17.5079 21.8846C17.5079 21.1418 17.3645 20.4326 17.1038 19.783C17.0596 19.6731 17.1388 19.5504 17.2571 19.5504H23.3803C23.4579 19.5504 23.5248 19.6053 23.5391 19.6816C23.6729 20.3955 23.7428 21.132 23.7428 21.8848C23.7428 22.4268 23.7066 22.9602 23.6364 23.4829C23.6256 23.563 23.557 23.6223 23.4762 23.6223H17.4591ZM6.44294 23.4079C6.47276 23.5145 6.39435 23.6223 6.28389 23.6223H0.266744C0.186002 23.6223 0.117295 23.563 0.106608 23.4829C0.0363747 22.9602 9.15527e-05 22.4268 9.15527e-05 21.8848C9.15527e-05 21.132 0.0700543 20.3955 0.203785 19.6816C0.218154 19.6053 0.285065 19.5504 0.362663 19.5504H6.48587C6.60425 19.5504 6.68328 19.6731 6.63918 19.783C6.37855 20.4326 6.23512 21.1418 6.23512 21.8846C6.23512 22.4125 6.30751 22.9234 6.44294 23.4079Z"
    fill="white" />
  <path
    d="M26.6368 17.3445H30.8496V21.3701L30.1631 20.5899C30.5584 19.737 31.1097 19.0088 31.817 18.4055C32.5243 17.8022 33.3149 17.3965 34.1886 17.1885C35.0624 16.9805 35.957 17.0117 36.8723 17.2821V21.2453C35.7697 20.8708 34.7503 20.7668 33.8142 20.9332C32.8988 21.0996 32.1707 21.4949 31.6298 22.119C31.1097 22.7431 30.8496 23.5129 30.8496 24.4283V33.4468H26.6368V17.3445Z"
    fill="white" />
  <path
    d="M37.0067 25.3956C37.0067 23.8562 37.3395 22.4415 38.0053 21.1516C38.6918 19.8618 39.628 18.8528 40.8138 18.1247C41.9996 17.3965 43.3103 17.0325 44.7457 17.0325C46.1812 17.0325 47.4502 17.3965 48.5529 18.1247C49.6555 18.8528 50.498 19.8514 51.0805 21.1204C51.6838 22.3895 51.9855 23.8146 51.9855 25.3956C51.9855 26.9767 51.6838 28.4018 51.0805 29.6709C50.498 30.9399 49.6555 31.9385 48.5529 32.6666C47.4502 33.3948 46.1812 33.7588 44.7457 33.7588C43.3103 33.7588 41.9996 33.3948 40.8138 32.6666C39.628 31.9385 38.6918 30.9399 38.0053 29.6709C37.3395 28.381 37.0067 26.9559 37.0067 25.3956ZM41.3755 25.3956C41.3755 26.2278 41.5627 26.9976 41.9372 27.7049C42.3117 28.3914 42.8214 28.9323 43.4663 29.3276C44.1112 29.7229 44.829 29.9205 45.6195 29.9205C46.4101 29.9205 47.1278 29.7229 47.7727 29.3276C48.4176 28.9323 48.9273 28.3914 49.3018 27.7049C49.6763 26.9976 49.8635 26.2278 49.8635 25.3956C49.8635 24.5635 49.6763 23.8041 49.3018 23.1176C48.9273 22.4103 48.4176 21.8694 47.7727 21.4949C47.1278 21.0996 46.4101 20.902 45.6195 20.902C44.829 20.902 44.1112 21.0996 43.4663 21.4949C42.8214 21.8694 42.3117 22.4103 41.9372 23.1176C41.5627 23.8041 41.3755 24.5635 41.3755 25.3956ZM49.8635 10.3544H54.0763V33.4468H49.8635V10.3544Z"
    fill="white" />
  <path
    d="M60.3406 23.6793H70.2641L69.2967 25.0212C69.2551 24.189 69.0471 23.4401 68.6726 22.7744C68.2981 22.1086 67.7884 21.5885 67.1435 21.2141C66.5194 20.8396 65.8017 20.6524 64.9903 20.6524C64.179 20.6524 63.4404 20.8604 62.7747 21.2765C62.109 21.6717 61.5889 22.2439 61.2144 22.9928C60.8399 23.7209 60.6527 24.5219 60.6527 25.3956C60.6527 26.2902 60.8399 27.1016 61.2144 27.8297C61.6097 28.5578 62.161 29.13 62.8683 29.546C63.5757 29.9621 64.3766 30.1702 65.2712 30.1702C66.1449 30.1702 66.9251 29.9725 67.6116 29.5772C68.319 29.1612 68.8703 28.5995 69.2655 27.8921L72.7294 29.4524C71.9804 30.7631 70.9506 31.8137 69.64 32.6042C68.3293 33.374 66.8315 33.7588 65.1464 33.7588C63.5444 33.7588 62.0882 33.3948 60.7775 32.6666C59.4669 31.9385 58.4267 30.9399 57.6569 29.6709C56.908 28.381 56.5335 26.9559 56.5335 25.3956C56.5335 23.8562 56.8976 22.4519 57.6257 21.1829C58.3747 19.893 59.3941 18.884 60.6839 18.1559C61.9737 17.4069 63.4092 17.0325 64.9903 17.0325C66.7587 17.0325 68.3293 17.4798 69.7024 18.3743C71.0755 19.2689 72.0845 20.4755 72.7294 21.9942C73.3951 23.4921 73.5823 25.1252 73.2911 26.8935H60.3406V23.6793Z"
    fill="white" />
  <path
    d="M75.8921 17.3445H80.1049V21.3701L79.4184 20.5899C79.8137 19.737 80.365 19.0088 81.0723 18.4055C81.7797 17.8022 82.5702 17.3965 83.444 17.1885C84.3177 16.9805 85.2123 17.0117 86.1277 17.2821V21.2453C85.0251 20.8708 84.0057 20.7668 83.0695 20.9332C82.1541 21.0996 81.426 21.4949 80.8851 22.119C80.365 22.7431 80.1049 23.5129 80.1049 24.4283V33.4468H75.8921V17.3445Z"
    fill="white" />
  <path d="M88.1051 10.3544H92.3179V33.4468H88.1051V10.3544Z" fill="white" />
  <path
    d="M99.0011 33.6652C99.3756 34.4766 99.8644 35.0903 100.468 35.5064C101.071 35.9432 101.768 36.1617 102.559 36.1617C103.744 36.1617 104.733 35.7456 105.523 34.9135C106.334 34.1021 106.74 33.0515 106.74 31.7617V28.9531L107.395 29.8269C106.875 30.8879 106.116 31.7304 105.117 32.3546C104.119 32.9579 102.975 33.2595 101.685 33.2595C100.353 33.2595 99.1987 32.9787 98.2209 32.417C97.2639 31.8553 96.5254 31.0751 96.0053 30.0765C95.4852 29.0779 95.2252 27.9233 95.2252 26.6127V17.3445H99.438V25.8637C99.438 26.5919 99.5732 27.2264 99.8436 27.7673C100.114 28.2874 100.499 28.7035 100.998 29.0155C101.518 29.3068 102.153 29.4524 102.902 29.4524C103.651 29.4524 104.316 29.3068 104.899 29.0155C105.502 28.7035 105.96 28.277 106.272 27.7361C106.584 27.1744 106.74 26.5503 106.74 25.8637V17.3445H110.953V31.7617C110.953 33.322 110.578 34.7262 109.83 35.9745C109.101 37.2435 108.092 38.2317 106.803 38.939C105.534 39.6463 104.119 40 102.559 40C100.936 40 99.49 39.6047 98.2209 38.8142C96.9519 38.0236 95.9637 36.973 95.2564 35.6624L99.0011 33.6652Z"
    fill="white" />
  <path
    d="M115.003 22.9253C115.003 20.8625 115.508 18.9854 116.519 17.2939C117.53 15.5818 118.901 14.241 120.634 13.2715C122.367 12.2813 124.285 11.7863 126.389 11.7863C128.493 11.7863 130.412 12.2813 132.144 13.2715C133.898 14.241 135.269 15.5818 136.26 17.2939C137.27 18.9854 137.776 20.8625 137.776 22.9253C137.776 24.9881 137.27 26.8755 136.26 28.5876C135.269 30.2791 133.898 31.6199 132.144 32.61C130.412 33.5795 128.493 34.0643 126.389 34.0643C124.285 34.0643 122.367 33.5795 120.634 32.61C118.901 31.6199 117.53 30.2791 116.519 28.5876C115.508 26.8755 115.003 24.9881 115.003 22.9253ZM119.582 22.9253C119.582 24.2455 119.881 25.4419 120.479 26.5145C121.077 27.5872 121.892 28.4432 122.924 29.0827C123.976 29.7015 125.131 30.0109 126.389 30.0109C127.647 30.0109 128.792 29.7015 129.824 29.0827C130.876 28.4432 131.701 27.5872 132.299 26.5145C132.897 25.4419 133.196 24.2455 133.196 22.9253C133.196 21.6051 132.897 20.4087 132.299 19.336C131.701 18.2634 130.876 17.4177 129.824 16.7988C128.792 16.1594 127.647 15.8396 126.389 15.8396C125.131 15.8396 123.976 16.1594 122.924 16.7988C121.892 17.4177 121.077 18.2634 120.479 19.336C119.881 20.4087 119.582 21.6051 119.582 22.9253ZM140.49 33.7549V17.789H144.667V21.7495L144.017 20.8831C144.553 19.8517 145.306 19.0266 146.276 18.4078C147.266 17.789 148.39 17.4795 149.648 17.4795C150.907 17.4795 152.021 17.7683 152.99 18.3459C153.98 18.9029 154.743 19.6867 155.28 20.6975C155.816 21.6876 156.084 22.8118 156.084 24.0701V33.7549H151.907V24.8127C151.907 24.132 151.752 23.5235 151.443 22.9872C151.154 22.4508 150.731 22.0383 150.174 21.7495C149.638 21.4401 149.009 21.2854 148.287 21.2854C147.606 21.2854 146.987 21.4401 146.43 21.7495C145.894 22.0383 145.461 22.4508 145.131 22.9872C144.821 23.5235 144.667 24.132 144.667 24.8127V33.7549H140.49ZM162.44 27.2571V24.0701H172.28L171.321 25.4006C171.279 24.5755 171.073 23.8329 170.702 23.1728C170.33 22.5127 169.825 21.997 169.186 21.6257C168.567 21.2544 167.855 21.0688 167.051 21.0688C166.246 21.0688 165.514 21.2751 164.854 21.6876C164.194 22.1002 163.678 22.6674 163.307 23.3894C162.935 24.1114 162.75 24.9056 162.75 25.7719C162.75 26.6589 162.935 27.4634 163.307 28.1854C163.699 28.9073 164.245 29.4746 164.947 29.8872C165.648 30.2791 166.442 30.4751 167.329 30.4751C168.195 30.4751 168.969 30.2791 169.65 29.8872C170.351 29.4952 170.898 28.9486 171.29 28.2473L174.724 29.7943C173.982 31.0939 172.96 32.1356 171.661 32.9194C170.361 33.6827 168.876 34.0643 167.205 34.0643C165.617 34.0643 164.173 33.7033 162.873 32.9813C161.574 32.2594 160.543 31.2692 159.779 30.0109C159.037 28.732 158.665 27.319 158.665 25.7719C158.665 24.2248 159.026 22.8221 159.748 21.5638C160.491 20.3056 161.502 19.3154 162.781 18.5934C164.06 17.8508 165.483 17.4795 167.051 17.4795C168.804 17.4795 170.361 17.923 171.723 18.81C173.084 19.697 174.085 20.8934 174.724 22.3993C175.384 23.8845 175.57 25.5038 175.281 27.2571H162.44Z"
    fill="white" />
</svg>