<svg xmlns="http://www.w3.org/2000/svg" width="2048" height="1514"><defs><linearGradient id="prefix__a" gradientUnits="userSpaceOnUse" x1="856.812" y1="1539.997" x2="762.524" y2="481.775" gradientTransform="matrix(1.42386 0 0 1.42552 -401.728 -684.709)"><stop offset="0" stop-color="#B569F4"/><stop offset="1" stop-color="#7AF8F5"/></linearGradient></defs><path fill="url(#prefix__a)" d="M76.98 418.523c59.868-127.057 162.911-234.114 281.666-307.48C530.246 5.583 736.978-26.433 932.39 22.191c151 35.976 293.73 126.303 393.13 245.262 16.57 19.849 33.05 40.399 46.62 62.456 14.24 16.247 24.98 38.173 35.76 56.961 71.09 123.956 103.18 272.521 93.72 414.883-12.43 204.227-106.36 394.897-260.64 529.127-148.86 129.94-343.251 195.22-540.267 181.44-202.605-13.87-386.065-111.04-518.613-264.01C51.171 1094.46-13.471 894.905 2.346 693.408a745.327 745.327 0 0153.333-228.945c6.041-15.042 12.357-32.559 21.301-45.94z"/><path fill="#0B0313" d="M116.929 445.764C226.648 221.611 446.322 72.01 694.854 52.176c248.553-19.832 489.106 93.041 632.896 296.964 198.82 281.933 165.23 666.38-79.46 909.48-244.69 243.07-628.933 273.74-908.996 72.53C59.233 1129.94-34.764 755.662 116.929 445.764z"/><path fill="#B569F4" d="M946.125 905.379l305.095-.194c-13.4 35.874-23.92 70.718-42.29 104.685-66.64 124.05-179.79 216.48-314.537 256.91-133.987 39.52-272.826 20.49-394.661-45.8-122.484-67.76-208.562-180.9-249.263-313.986 102.786.953 205.905-1.658 308.632 1.267 14.525 25.66 31.487 50.237 53.919 69.655 43.608 37.754 100.149 51.684 156.798 46.984 57.809-4.79 109.313-30.851 145.826-76.205 10.55-13.106 18.22-29.299 29.073-41.734.454-.541.942-1.051 1.408-1.582z"/><path fill="#97BAF0" d="M364.992 430.761l797.178-.76c46.86 59.946 77.16 125.429 94.93 199.287l-259.893-.54-42.092-.359c-21.501-48.666-55.598-89.998-102.835-115.27a213.126 213.126 0 00-161.543-16.336c-66.809 20.63-105.987 69.929-137.192 129.533-34.749.939-69.778.085-104.558.094l-204.933-.147c17.678-68.757 48.706-140.529 94.516-195.324l26.422-.178z"/><path fill="#7AF8F5" d="M715.444 226.779c16.453-1.213 33.231-1.316 49.728-.824 132.861 3.971 263.258 58.585 354.958 155.85l-332.222-.354-406.808.019c83.918-89.882 212.597-146.663 334.344-154.691z"/><path fill="#A698F0" d="M358.574 680.222l177.878.527c-9.759 56.824-15.219 120.896 5.751 175.802l-125.925-.141-179.882.725c-11.165-56.455-14.319-119.724-3.181-176.522l125.359-.391zM1083.71 677.373l180.89-.215c6.69 43.518 6.12 89.381 1.71 133.087-1.54 15.327-4.25 30.48-5.73 45.818-37.48-.986-74.97-1.43-112.45-1.311l-186.386-.075c18.988-58.513 17.677-117.072 8.167-177.035l113.799-.269z"/><path fill="#79F6FD" d="M1771.21.496c93.02.512 186.05.336 279.07-.496-.99 57.676-.27 115.498-.34 173.203v346.449l-.1 994.478c-71.37-1.36-142.92-.23-214.32-.72l-70.79-.39 2.12-1157.718c-21.1 16.221-45.33 28.992-68.34 42.053a5701.817 5701.817 0 00-67.52 39.248l.02-323.256c37.15 1.097 83.12-5.485 111.17-33.028 22.46-22.058 28.42-48.973 29.03-79.823z"/><path fill="#0D0D0D" d="M1972.8 53.645l21.35-.325c2.35 185.581-.17 371.388-.19 556.993l.18 850.037-176.69-.23-.31-193.88.15-998.895c-43.1 29.929-91.46 52.338-135.54 80.758a7687.786 7687.786 0 01-.59-185.372c18.68-2.176 37.98-7.898 55.05-16.02 40.23-19.149 63.73-50.456 78.6-92.433 52.53 1.283 105.43-.384 157.99-.633z"/></svg>