<svg width="177" height="40" fill="none" xmlns="http://www.w3.org/2000/svg"><path fill-rule="evenodd" clip-rule="evenodd" d="M19.339 12.644c.116.095.048.28-.102.28H4.507c-.15 0-.219-.185-.102-.28A11.815 11.815 0 0111.872 10c2.829 0 5.427.99 7.467 2.644zM7.253 25.113a.454.454 0 00-.37-.197H.673a.214.214 0 00-.207.272C1.898 30.14 6.462 33.76 11.87 33.76c5.408 0 9.972-3.62 11.404-8.572a.213.213 0 00-.206-.272h-6.21a.454.454 0 00-.37.197 5.628 5.628 0 01-4.618 2.406 5.629 5.629 0 01-4.618-2.406zM16.049 18.086a.453.453 0 00.334.152h6.497a.213.213 0 00.203-.283 11.863 11.863 0 00-2.002-3.58.425.425 0 00-.33-.155H2.995a.425.425 0 00-.33.156 11.866 11.866 0 00-2.003 3.58.213.213 0 00.203.282h6.497a.453.453 0 00.335-.152 5.62 5.62 0 014.176-1.852 5.62 5.62 0 014.176 1.852zM17.46 23.622a.168.168 0 01-.16-.214c.135-.485.208-.995.208-1.523a5.63 5.63 0 00-.404-2.102.169.169 0 01.153-.233h6.123c.078 0 .145.055.16.132a11.952 11.952 0 01.096 3.8c-.01.081-.079.14-.16.14H17.46zm-11.017-.214a.168.168 0 01-.16.214H.268c-.081 0-.15-.059-.16-.14a11.995 11.995 0 01.097-3.8.161.161 0 01.159-.132h6.123c.118 0 .197.123.153.233a5.631 5.631 0 00-.404 2.102c0 .527.073 1.038.208 1.523z" fill="#fff"/><path d="M26.637 17.345h4.213v4.025l-.687-.78a6.34 6.34 0 011.654-2.184 5.618 5.618 0 012.372-1.217c.873-.209 1.768-.177 2.683.093v3.963c-1.102-.374-2.122-.478-3.058-.312-.915.167-1.643.562-2.184 1.186-.52.624-.78 1.394-.78 2.31v9.018h-4.213V17.344zM37.007 25.396c0-1.54.333-2.954.998-4.244.687-1.29 1.623-2.3 2.809-3.027 1.186-.729 2.496-1.093 3.932-1.093 1.435 0 2.704.364 3.807 1.093 1.103.728 1.945 1.726 2.528 2.995.603 1.27.904 2.695.904 4.276 0 1.58-.301 3.006-.904 4.275-.583 1.269-1.425 2.268-2.528 2.996-1.103.728-2.372 1.092-3.807 1.092-1.436 0-2.746-.364-3.932-1.092-1.186-.729-2.122-1.727-2.809-2.996-.666-1.29-.998-2.715-.998-4.275zm4.369 0c0 .832.187 1.602.561 2.309a4.253 4.253 0 001.53 1.623 4.039 4.039 0 002.153.593c.79 0 1.508-.198 2.153-.593a4.253 4.253 0 001.529-1.623 4.86 4.86 0 00.562-2.31c0-.831-.188-1.59-.562-2.277-.375-.708-.884-1.249-1.53-1.623a4.039 4.039 0 00-2.152-.593c-.791 0-1.509.198-2.154.593-.645.374-1.154.915-1.529 1.623a4.678 4.678 0 00-.561 2.278zm8.488-15.042h4.212v23.093h-4.212V10.354zM60.34 23.68h9.924l-.967 1.341c-.042-.832-.25-1.58-.624-2.247a4.08 4.08 0 00-1.53-1.56c-.624-.374-1.341-.562-2.153-.562-.811 0-1.55.208-2.215.624-.666.396-1.186.968-1.56 1.717a5.175 5.175 0 00-.562 2.403c0 .894.187 1.706.561 2.434.396.728.947 1.3 1.654 1.716.708.416 1.509.624 2.403.624.874 0 1.654-.198 2.34-.593a4.433 4.433 0 001.654-1.685l3.464 1.56a8.628 8.628 0 01-3.089 3.152c-1.31.77-2.808 1.155-4.494 1.155-1.602 0-3.058-.364-4.368-1.092a8.3 8.3 0 01-3.121-2.996c-.749-1.29-1.123-2.715-1.123-4.275 0-1.54.364-2.944 1.092-4.213a8.062 8.062 0 013.058-3.027c1.29-.75 2.725-1.123 4.306-1.123 1.769 0 3.34.447 4.712 1.341a7.92 7.92 0 013.027 3.62c.666 1.498.853 3.131.562 4.9h-12.95v-3.215zM75.892 17.345h4.213v4.025l-.687-.78a6.34 6.34 0 011.654-2.184 5.618 5.618 0 012.372-1.217c.874-.209 1.768-.177 2.684.093v3.963c-1.103-.374-2.122-.478-3.058-.312-.916.167-1.644.562-2.185 1.186-.52.624-.78 1.394-.78 2.31v9.018h-4.213V17.344zM88.105 10.354h4.213v23.093h-4.213V10.354zM99.001 33.665c.375.812.863 1.425 1.467 1.841.603.437 1.3.656 2.091.656 1.185 0 2.174-.416 2.964-1.248.811-.812 1.217-1.863 1.217-3.152v-2.809l.655.874a6.075 6.075 0 01-2.278 2.528c-.998.603-2.142.905-3.432.905-1.332 0-2.486-.281-3.464-.843a5.721 5.721 0 01-2.216-2.34c-.52-1-.78-2.154-.78-3.464v-9.268h4.213v8.519c0 .728.135 1.362.406 1.903.27.52.655.936 1.154 1.248.52.292 1.155.437 1.904.437.749 0 1.414-.145 1.997-.437.603-.312 1.061-.738 1.373-1.279a3.79 3.79 0 00.468-1.872v-8.52h4.213v14.418c0 1.56-.375 2.964-1.123 4.212a7.693 7.693 0 01-3.027 2.965c-1.269.707-2.684 1.061-4.244 1.061-1.623 0-3.069-.395-4.338-1.186a8.297 8.297 0 01-2.965-3.152l3.745-1.997zM115.003 22.925c0-2.063.505-3.94 1.516-5.631a10.851 10.851 0 014.115-4.023c1.733-.99 3.651-1.485 5.755-1.485s4.023.495 5.755 1.486c1.754.969 3.125 2.31 4.116 4.022 1.01 1.691 1.516 3.569 1.516 5.631 0 2.063-.506 3.95-1.516 5.663-.991 1.691-2.362 3.032-4.116 4.022-1.732.97-3.651 1.454-5.755 1.454s-4.022-.484-5.755-1.454a11.157 11.157 0 01-4.115-4.022c-1.011-1.713-1.516-3.6-1.516-5.663zm4.579 0c0 1.32.299 2.517.897 3.59a6.952 6.952 0 002.445 2.568 6.71 6.71 0 003.465.928c1.258 0 2.403-.31 3.435-.928a6.875 6.875 0 002.475-2.568c.598-1.073.897-2.27.897-3.59 0-1.32-.299-2.516-.897-3.589a6.645 6.645 0 00-2.475-2.537c-1.032-.64-2.177-.96-3.435-.96s-2.413.32-3.465.96a6.714 6.714 0 00-2.445 2.537c-.598 1.073-.897 2.27-.897 3.59zm20.908 10.83V17.789h4.177v3.96l-.65-.866a6.365 6.365 0 012.259-2.475c.99-.619 2.114-.928 3.372-.928 1.259 0 2.373.288 3.342.866a5.722 5.722 0 012.29 2.352c.536.99.804 2.114.804 3.372v9.685h-4.177v-8.942c0-.681-.155-1.29-.464-1.826a2.943 2.943 0 00-1.269-1.237c-.536-.31-1.165-.465-1.887-.465-.681 0-1.3.155-1.857.465a3.4 3.4 0 00-1.299 1.237c-.31.537-.464 1.145-.464 1.826v8.942h-4.177zm21.95-6.498V24.07h9.84l-.959 1.33c-.042-.824-.248-1.567-.619-2.227a4.055 4.055 0 00-1.516-1.547c-.619-.372-1.331-.557-2.135-.557-.805 0-1.537.206-2.197.619-.66.412-1.176.98-1.547 1.701a5.124 5.124 0 00-.557 2.383c0 .887.185 1.691.557 2.413.392.722.938 1.29 1.64 1.702.701.392 1.495.588 2.382.588.866 0 1.64-.196 2.321-.588a4.183 4.183 0 001.64-1.64l3.434 1.547a8.553 8.553 0 01-3.063 3.125c-1.3.764-2.785 1.145-4.456 1.145-1.588 0-3.032-.36-4.332-1.083a8.238 8.238 0 01-3.094-2.97c-.742-1.279-1.114-2.692-1.114-4.24 0-1.546.361-2.949 1.083-4.207a8.066 8.066 0 013.033-2.97c1.279-.743 2.702-1.114 4.27-1.114 1.753 0 3.31.443 4.672 1.33a7.851 7.851 0 013.001 3.59c.66 1.485.846 3.104.557 4.857H162.44z" fill="#fff"/></svg>