<svg width="40" height="40" fill="#fff" xmlns="http://www.w3.org/2000/svg"><path fill-rule="evenodd" clip-rule="evenodd" d="M19.954-.006h.095a19.937 19.937 0 0113.1 4.922c.248.217.09.614-.239.614H7.093c-.33 0-.487-.397-.239-.614a19.936 19.936 0 0113.1-4.922zM12.222 25.409a.765.765 0 00-.623-.332H1.254c-.3 0-.518.283-.433.57 2.45 8.267 10.11 14.299 19.18 14.299 9.072 0 16.732-6.032 19.181-14.298a.447.447 0 00-.433-.571H28.404c-.249 0-.48.128-.622.331a9.488 9.488 0 01-7.78 4.046 9.488 9.488 0 01-7.78-4.046zM27.532 14.193a.968.968 0 00.761.386h10.368a.446.446 0 00.431-.577 19.927 19.927 0 00-3.683-6.767.717.717 0 00-.553-.257H5.143a.717.717 0 00-.553.257 19.927 19.927 0 00-3.683 6.767.446.446 0 00.431.577h10.368c.3 0 .579-.149.762-.386A9.484 9.484 0 0120 10.485a9.484 9.484 0 017.532 3.708zM29.175 23.631a.283.283 0 01-.261-.382 9.456 9.456 0 00.582-3.277 9.447 9.447 0 00-.688-3.55.284.284 0 01.258-.392h10.17a.45.45 0 01.445.368c.21 1.16.319 2.354.319 3.575 0 1.119-.092 2.216-.27 3.285a.45.45 0 01-.445.373h-10.11zm-18.089-.382a.283.283 0 01-.261.383H.715a.45.45 0 01-.446-.375A20.09 20.09 0 010 19.974c0-1.22.11-2.415.32-3.575a.45.45 0 01.444-.368h10.17c.2 0 .333.207.258.392a9.448 9.448 0 00-.688 3.55c0 1.152.206 2.255.582 3.277z"/></svg>