<?xml version="1.0" encoding="utf-8"?>
<svg xmlns="http://www.w3.org/2000/svg" width="2048" height="1514" viewBox="0 0 2048 1514"
  xmlns:bx="https://boxy-svg.com">
  <defs>
    <linearGradient id="gradient_0" gradientUnits="userSpaceOnUse" x1="856.81165" y1="1539.9968" x2="762.52441"
      y2="481.77509" gradientTransform="matrix(1.423856, 0, 0, 1.425515, -401.728447, -684.708694)">
      <stop offset="0" stop-color="#B569F4" />
      <stop offset="1" stop-color="#7AF8F5" />
    </linearGradient>
    <bx:grid x="0" y="0" width="174.278" height="108.152" />
  </defs>
  <path fill="url(#gradient_0)"
    d="M 76.98 418.523 C 136.848 291.466 239.891 184.409 358.646 111.043 C 530.246 5.583 736.978 -26.433 932.39 22.191 C 1083.39 58.167 1226.12 148.494 1325.52 267.453 C 1342.09 287.302 1358.57 307.852 1372.14 329.909 C 1386.38 346.156 1397.12 368.082 1407.9 386.87 C 1478.99 510.826 1511.08 659.391 1501.62 801.753 C 1489.19 1005.98 1395.26 1196.65 1240.98 1330.88 C 1092.12 1460.82 897.729 1526.1 700.713 1512.32 C 498.108 1498.45 314.648 1401.28 182.1 1248.31 C 51.171 1094.46 -13.471 894.905 2.346 693.408 C 7.903 614.747 25.904 537.468 55.679 464.463 C 61.72 449.421 68.036 431.904 76.98 418.523 Z"
    style="" />
  <path fill="#0B0313"
    d="M 116.929 445.764 C 226.648 221.611 446.322 72.01 694.854 52.176 C 943.407 32.344 1183.96 145.217 1327.75 349.14 C 1526.57 631.073 1492.98 1015.52 1248.29 1258.62 C 1003.6 1501.69 619.357 1532.36 339.294 1331.15 C 59.233 1129.94 -34.764 755.662 116.929 445.764 Z"
    style="" />
  <path fill="#B569F4"
    d="M 946.125 905.379 L 1251.22 905.185 C 1237.82 941.059 1227.3 975.903 1208.93 1009.87 C 1142.29 1133.92 1029.14 1226.35 894.393 1266.78 C 760.406 1306.3 621.567 1287.27 499.732 1220.98 C 377.248 1153.22 291.17 1040.08 250.469 906.994 C 353.255 907.947 456.374 905.336 559.101 908.261 C 573.626 933.921 590.588 958.498 613.02 977.916 C 656.628 1015.67 713.169 1029.6 769.818 1024.9 C 827.627 1020.11 879.131 994.049 915.644 948.695 C 926.194 935.589 933.864 919.396 944.717 906.961 C 945.171 906.42 945.659 905.91 946.125 905.379 Z"
    style="" />
  <path fill="#97BAF0"
    d="M 364.992 430.761 L 1162.17 430.001 C 1209.03 489.947 1239.33 555.43 1257.1 629.288 L 997.207 628.748 L 955.115 628.389 C 933.614 579.723 899.517 538.391 852.28 513.119 C 802.693 486.572 744.635 480.7 690.737 496.783 C 623.928 517.413 584.75 566.712 553.545 626.316 C 518.796 627.255 483.767 626.401 448.987 626.41 L 244.054 626.263 C 261.732 557.506 292.76 485.734 338.57 430.939 L 364.992 430.761 Z"
    style="" />
  <path fill="#7AF8F5"
    d="M 715.444 226.779 C 731.897 225.566 748.675 225.463 765.172 225.955 C 898.033 229.926 1028.43 284.54 1120.13 381.805 L 787.908 381.451 L 381.1 381.47 C 465.018 291.588 593.697 234.807 715.444 226.779 Z"
    style="" />
  <path fill="#A698F0"
    d="M 358.574 680.222 L 536.452 680.749 C 526.693 737.573 521.233 801.645 542.203 856.551 L 416.278 856.41 L 236.396 857.135 C 225.231 800.68 222.077 737.411 233.215 680.613 L 358.574 680.222 Z"
    style="" />
  <path fill="#A698F0"
    d="M 1083.71 677.373 L 1264.6 677.158 C 1271.29 720.676 1270.72 766.539 1266.31 810.245 C 1264.77 825.572 1262.06 840.725 1260.58 856.063 C 1223.1 855.077 1185.61 854.633 1148.13 854.752 L 961.744 854.677 C 980.732 796.164 979.421 737.605 969.911 677.642 L 1083.71 677.373 Z"
    style="" />
  <path fill="#79F6FD"
    d="M 1771.21 0.496 C 1864.23 1.008 1957.26 0.832 2050.28 0 C 2049.29 57.676 2050.01 115.498 2049.94 173.203 L 2049.94 519.652 L 2049.84 1514.13 C 1978.47 1512.77 1906.92 1513.9 1835.52 1513.41 L 1764.73 1513.02 L 1766.85 355.302 C 1745.75 371.523 1721.52 384.294 1698.51 397.355 C 1675.9 410.286 1653.41 423.37 1630.99 436.603 L 1631.01 113.347 C 1668.16 114.444 1714.13 107.862 1742.18 80.319 C 1764.64 58.261 1770.6 31.346 1771.21 0.496 Z"
    style="stroke-width: 1;" />
  <path fill="#0D0D0D"
    d="M 1972.8 53.645 L 1994.15 53.32 C 1996.5 238.901 1993.98 424.708 1993.96 610.313 L 1994.14 1460.35 L 1817.45 1460.12 L 1817.14 1266.24 L 1817.29 267.345 C 1774.19 297.274 1725.83 319.683 1681.75 348.103 C 1680.81 286.316 1680.61 224.52 1681.16 162.731 C 1699.84 160.555 1719.14 154.833 1736.21 146.711 C 1776.44 127.562 1799.94 96.255 1814.81 54.278 C 1867.34 55.561 1920.24 53.894 1972.8 53.645 Z"
    style="stroke-width: 1;" />
</svg>