<svg width="40px" height="40px" viewBox="0 0 40 40" fill="white" xmlns="http://www.w3.org/2000/svg">
  <path fill-rule="evenodd" clip-rule="evenodd"
    d="M19.9539 -0.00585938L20.0489 -0.00585937C25.0634 0.00579215 29.6443 1.86063 33.1486 4.91627C33.3969 5.13279 33.2396 5.53015 32.91 5.53015L7.09278 5.53015C6.76316 5.53015 6.6059 5.13279 6.85421 4.91627C10.3585 1.86063 14.9394 0.00579141 19.9539 -0.00585938Z">
  </path>
  <path fill-rule="evenodd" clip-rule="evenodd"
    d="M12.2219 25.4085C12.0788 25.2047 11.8484 25.0767 11.5992 25.0767L1.25441 25.0767C0.954727 25.0767 0.736228 25.3605 0.821266 25.6475C3.27051 33.9141 10.9309 39.9455 20.0017 39.9455C29.0725 39.9455 36.7329 33.9141 39.1822 25.6475C39.2672 25.3605 39.0487 25.0767 38.749 25.0767L28.4045 25.0767C28.1552 25.0767 27.9248 25.2047 27.7817 25.4085C26.0643 27.8545 23.22 29.4536 20.0018 29.4536C16.7836 29.4536 13.9393 27.8545 12.2219 25.4085Z">
  </path>
  <path fill-rule="evenodd" clip-rule="evenodd"
    d="M27.5316 14.1925C27.7145 14.43 27.993 14.579 28.293 14.579L38.6608 14.579C38.9632 14.579 39.1823 14.2906 39.092 14.0022C38.3085 11.4988 37.0451 9.2071 35.4093 7.23466C35.2732 7.07047 35.0698 6.97779 34.8563 6.97779L5.14293 6.97778C4.92948 6.97778 4.7261 7.07047 4.58994 7.23466C2.95416 9.2071 1.69072 11.4988 0.907234 14.0022C0.816987 14.2906 1.03601 14.579 1.3385 14.579L11.7063 14.579C12.0063 14.579 12.2848 14.43 12.4676 14.1925C14.2036 11.9377 16.9317 10.4846 19.9996 10.4846C23.0676 10.4846 25.7957 11.9377 27.5316 14.1925Z">
  </path>
  <path fill-rule="evenodd" clip-rule="evenodd"
    d="M29.1751 23.6315C28.9793 23.6315 28.8462 23.4321 28.9139 23.2486C29.2902 22.2275 29.4957 21.1239 29.4957 19.9723C29.4957 18.717 29.2515 17.5185 28.8079 16.4219C28.7331 16.237 28.8664 16.0303 29.0661 16.0303L39.2359 16.0303C39.4537 16.0303 39.6418 16.1837 39.6805 16.3977C39.8903 17.5576 39.9998 18.7524 39.9998 19.9726C39.9998 21.0915 39.9077 22.1888 39.7307 23.2575C39.6948 23.4746 39.5053 23.6315 39.285 23.6315L29.1751 23.6315ZM11.086 23.2486C11.1536 23.4321 11.0205 23.6315 10.8247 23.6315L0.714832 23.6314C0.494556 23.6314 0.305069 23.4746 0.269115 23.2575C0.0920909 22.1888 0 21.0915 0 19.9726C0 18.7524 0.10955 17.5576 0.319362 16.3977C0.358081 16.1837 0.546157 16.0303 0.763935 16.0303L10.9338 16.0303C11.1335 16.0303 11.2667 16.237 11.1919 16.4219C10.7484 17.5185 10.5042 18.7169 10.5042 19.9723C10.5042 21.1239 10.7096 22.2275 11.086 23.2486Z">
  </path>
</svg>