<svg width="25" height="25" viewBox="0 0 25 25" fill="none" xmlns="http://www.w3.org/2000/svg">
  <mask id="mask0_1125_939" style="mask-type:alpha" maskUnits="userSpaceOnUse" x="0" y="0" width="25" height="25">
    <rect x="0.966797" y="0.295898" width="24" height="24" fill="#D9D9D9" />
  </mask>
  <g mask="url(#mask0_1125_939)">
    <path
      d="M12.9668 9.2959L9.4668 5.7959L12.9668 2.2959L16.4668 5.7959L12.9668 9.2959ZM1.9668 20.2959V16.2959C1.9668 15.7292 2.16263 15.2542 2.5543 14.8709C2.94596 14.4876 3.4168 14.2959 3.9668 14.2959H7.2418C7.57513 14.2959 7.8918 14.3792 8.1918 14.5459C8.4918 14.7126 8.73346 14.9376 8.9168 15.2209C9.40013 15.8709 9.99596 16.3792 10.7043 16.7459C11.4126 17.1126 12.1668 17.2959 12.9668 17.2959C13.7835 17.2959 14.546 17.1126 15.2543 16.7459C15.9626 16.3792 16.5501 15.8709 17.0168 15.2209C17.2335 14.9376 17.4876 14.7126 17.7793 14.5459C18.071 14.3792 18.3751 14.2959 18.6918 14.2959H21.9668C22.5335 14.2959 23.0085 14.4876 23.3918 14.8709C23.7751 15.2542 23.9668 15.7292 23.9668 16.2959V20.2959H16.9668V18.0209C16.3835 18.4376 15.7543 18.7542 15.0793 18.9709C14.4043 19.1876 13.7001 19.2959 12.9668 19.2959C12.2501 19.2959 11.5501 19.1834 10.8668 18.9584C10.1835 18.7334 9.55013 18.4126 8.9668 17.9959V20.2959H1.9668ZM4.9668 13.2959C4.13346 13.2959 3.42513 13.0042 2.8418 12.4209C2.25846 11.8376 1.9668 11.1292 1.9668 10.2959C1.9668 9.4459 2.25846 8.7334 2.8418 8.1584C3.42513 7.5834 4.13346 7.2959 4.9668 7.2959C5.8168 7.2959 6.5293 7.5834 7.1043 8.1584C7.6793 8.7334 7.9668 9.4459 7.9668 10.2959C7.9668 11.1292 7.6793 11.8376 7.1043 12.4209C6.5293 13.0042 5.8168 13.2959 4.9668 13.2959ZM20.9668 13.2959C20.1335 13.2959 19.4251 13.0042 18.8418 12.4209C18.2585 11.8376 17.9668 11.1292 17.9668 10.2959C17.9668 9.4459 18.2585 8.7334 18.8418 8.1584C19.4251 7.5834 20.1335 7.2959 20.9668 7.2959C21.8168 7.2959 22.5293 7.5834 23.1043 8.1584C23.6793 8.7334 23.9668 9.4459 23.9668 10.2959C23.9668 11.1292 23.6793 11.8376 23.1043 12.4209C22.5293 13.0042 21.8168 13.2959 20.9668 13.2959Z"
      fill="white" />
  </g>
</svg>