<svg width="20" height="21" viewBox="0 0 20 21" fill="none" xmlns="http://www.w3.org/2000/svg">
  <path
    d="M4.09178 10.544C4.52512 9.44399 5.04595 8.38566 5.65428 7.36899C6.26262 6.35233 6.95012 5.39399 7.71678 4.49399L6.41678 4.21899C6.08345 4.15233 5.75845 4.16899 5.44178 4.26899C5.12512 4.36899 4.85012 4.53566 4.61678 4.76899L1.46678 7.91899C1.21678 8.16899 1.12095 8.46899 1.17928 8.81899C1.23762 9.16899 1.43345 9.41066 1.76678 9.54399L4.09178 10.544ZM18.7918 0.793993C17.0251 0.71066 15.346 1.05233 13.7543 1.81899C12.1626 2.58566 10.7418 3.59399 9.49179 4.84399C8.69178 5.64399 7.98762 6.51066 7.37928 7.44399C6.77095 8.37733 6.24178 9.36066 5.79178 10.394C5.70845 10.6107 5.66678 10.8315 5.66678 11.0565C5.66678 11.2815 5.75012 11.4773 5.91678 11.644L9.04179 14.769C9.20845 14.9357 9.40428 15.019 9.62928 15.019C9.85429 15.019 10.0751 14.9773 10.2918 14.894C11.3251 14.444 12.3085 13.9148 13.2418 13.3065C14.1751 12.6982 15.0418 11.994 15.8418 11.194C17.0918 9.94399 18.1001 8.52316 18.8668 6.93149C19.6335 5.33983 19.9751 3.66066 19.8918 1.89399C19.8918 1.76066 19.8585 1.62733 19.7918 1.49399C19.7251 1.36066 19.6418 1.24399 19.5418 1.14399C19.4418 1.04399 19.3251 0.96066 19.1918 0.893993C19.0585 0.827327 18.9251 0.793993 18.7918 0.793993ZM12.4418 8.24399C12.0585 7.86066 11.8668 7.38983 11.8668 6.83149C11.8668 6.27316 12.0585 5.80233 12.4418 5.41899C12.8251 5.03566 13.296 4.84399 13.8543 4.84399C14.4126 4.84399 14.8835 5.03566 15.2668 5.41899C15.6501 5.80233 15.8418 6.27316 15.8418 6.83149C15.8418 7.38983 15.6501 7.86066 15.2668 8.24399C14.8835 8.62733 14.4126 8.81899 13.8543 8.81899C13.296 8.81899 12.8251 8.62733 12.4418 8.24399ZM10.1418 16.594L11.1418 18.919C11.2751 19.2523 11.5168 19.4523 11.8668 19.519C12.2168 19.5857 12.5168 19.494 12.7668 19.244L15.9168 16.094C16.1501 15.8607 16.3168 15.5815 16.4168 15.2565C16.5168 14.9315 16.5335 14.6023 16.4668 14.269L16.2168 12.969C15.3001 13.7357 14.3376 14.4232 13.3293 15.0315C12.321 15.6398 11.2585 16.1607 10.1418 16.594ZM2.01678 14.444C2.60012 13.8607 3.30845 13.5648 4.14178 13.5565C4.97512 13.5482 5.68345 13.8357 6.26678 14.419C6.85012 15.0023 7.14178 15.7107 7.14178 16.544C7.14178 17.3773 6.85012 18.0857 6.26678 18.669C5.46678 19.469 4.52095 19.944 3.42928 20.094C2.33762 20.244 1.24178 20.394 0.141785 20.544C0.291785 19.444 0.445951 18.3482 0.604285 17.2565C0.762618 16.1648 1.23345 15.2273 2.01678 14.444Z"
    fill="white" />
</svg>