<svg width="25" height="25" viewBox="0 0 25 25" fill="none" xmlns="http://www.w3.org/2000/svg">
  <mask id="mask0_1133_147" style="mask-type:alpha" maskUnits="userSpaceOnUse" x="0" y="0" width="25" height="25">
    <rect x="0.966797" y="0.394043" width="24" height="24" fill="#D9D9D9" />
  </mask>
  <g mask="url(#mask0_1133_147)">
    <path
      d="M11.9668 19.394H13.9668V16.394H16.9668V14.394H13.9668V11.394H11.9668V14.394H8.9668V16.394H11.9668V19.394ZM6.9668 22.394C6.4168 22.394 5.94596 22.1982 5.5543 21.8065C5.16263 21.4149 4.9668 20.944 4.9668 20.394V10.394C4.9668 9.84404 5.16263 9.37321 5.5543 8.98154C5.94596 8.58988 6.4168 8.39404 6.9668 8.39404H7.9668V6.39404C7.9668 5.01071 8.4543 3.83154 9.4293 2.85654C10.4043 1.88154 11.5835 1.39404 12.9668 1.39404C14.3501 1.39404 15.5293 1.88154 16.5043 2.85654C17.4793 3.83154 17.9668 5.01071 17.9668 6.39404V8.39404H18.9668C19.5168 8.39404 19.9876 8.58988 20.3793 8.98154C20.771 9.37321 20.9668 9.84404 20.9668 10.394V20.394C20.9668 20.944 20.771 21.4149 20.3793 21.8065C19.9876 22.1982 19.5168 22.394 18.9668 22.394H6.9668ZM9.9668 8.39404H15.9668V6.39404C15.9668 5.56071 15.6751 4.85238 15.0918 4.26904C14.5085 3.68571 13.8001 3.39404 12.9668 3.39404C12.1335 3.39404 11.4251 3.68571 10.8418 4.26904C10.2585 4.85238 9.9668 5.56071 9.9668 6.39404V8.39404Z"
      fill="white" />
  </g>
</svg>